# xmcd
#
# Track frame offsets:
#	150
#	10365
#	22935
#	31310
#	40672
#	50642
#	59845
#	72122
#	82385
#	91820
#
# Disc length: 1356 seconds
#
# Revision: 3
# Processed by: cddbd v1.5.2PL0 Copyright (c) Steve Scherf et al.
# Submitted via: EZCDAudioConverter 6.0.5.1
#
DISCID=81054a0a
DTITLE=Johnny Cash - Blue Train
DYEAR=1996
DGENRE=Country
TTITLE0=Hey Porter
TTITLE1=Give My Love to Rose
TTITLE2=Guess Things Happen That Way
TTITLE3=Luther Played the Boogie
TTITLE4=I Could Never Be Ashamed of You
TTITLE5=Blue Train
TTITLE6=I Walk the Line
TTITLE7=The Ways of a Woman in Love
TTITLE8=Down the Street to 301
TTITLE9=Goodbye Little Darling
EXTD=
EXTT0=
EXTT1=
EXTT2=
EXTT3=
EXTT4=
EXTT5=
EXTT6=
EXTT7=
EXTT8=
EXTT9=
PLAYORDER=
